# xmcd
#
# Track frame offsets: 
#        150
#        17089
#        44280
#        56094
#        75224
#        99522
#        118290
#        138603
#        155576
#        171382
#        224890
#        242285
#        265637
#        283503
#
# Disc length: 4522 seconds
#
# Revision: 0
# Processed by: cddbd v1.5.2PL0 Copyright (c) Steve Scherf et al.
# Submitted via: ExactAudioCopy v0.95a5
#
DISCID=c611a80e
DTITLE=Diesel and Strings - Live at the Vanguard
DYEAR=2006
DGENRE=Blues
TTITLE0=Crazytown
TTITLE1=Tip Of My Tongue
TTITLE2=Don't Send Another
TTITLE3=Saviour
TTITLE4=15' of Snow
TTITLE5=Don't Need Love
TTITLE6=I Do
TTITLE7=Meaning of Life
TTITLE8=Beautiful Life
TTITLE9=Come to Me
TTITLE10=Darling of the Universe
TTITLE11=Positive
TTITLE12=Faith and Gasoline
TTITLE13=Cryin' Shame
EXTD=
EXTT0=
EXTT1=
EXTT2=
EXTT3=
EXTT4=
EXTT5=
EXTT6=
EXTT7=
EXTT8=
EXTT9=
EXTT10=
EXTT11=
EXTT12=
EXTT13=
PLAYORDER=
